<?xml version="1.0" encoding="utf-8"?>
<!-- Generator: Adobe Illustrator 16.0.3, SVG Export Plug-In . SVG Version: 6.00 Build 0)  -->
<!DOCTYPE svg PUBLIC "-//W3C//DTD SVG 1.1//EN" "http://www.w3.org/Graphics/SVG/1.1/DTD/svg11.dtd">
<svg version="1.1" id="Layer_1" xmlns="http://www.w3.org/2000/svg" xmlns:xlink="http://www.w3.org/1999/xlink" x="0px" y="0px"
	 width="70px" height="24px" viewBox="32.329 14 70 24" enable-background="new 32.329 14 70 24" xml:space="preserve">
<g>
	<g>
		<path fill="#FFFFFF" d="M60.662,31.268v-9.377h3.999c1.145,0,1.682,0.124,2.137,0.358c0.76,0.413,1.216,1.09,1.216,2.068
			c0,1.076-0.702,1.724-1.477,1.985v0.015c0.979,0.289,1.82,0.992,1.82,2.315c0,1.051-0.469,1.794-1.269,2.236
			c-0.482,0.261-1.007,0.4-2.248,0.4h-4.179V31.268z M65.599,23.834c-0.249-0.166-0.552-0.207-1.187-0.207h-1.695v2h1.682
			c0.717,0,1.007-0.027,1.269-0.261c0.18-0.166,0.29-0.442,0.29-0.773C65.957,24.249,65.806,23.973,65.599,23.834z M62.717,29.518
			h1.737c0.73,0,1.076-0.029,1.337-0.209c0.276-0.165,0.441-0.522,0.441-0.979c0-0.524-0.262-0.884-0.675-1.021
			c-0.248-0.069-0.566-0.098-1.104-0.098h-1.738L62.717,29.518L62.717,29.518z"/>
		<path fill="#FFFFFF" d="M75.098,29.627c0,0.414,0.059,0.552,0.345,0.552h0.098v1.159c-0.304,0.056-0.607,0.081-0.937,0.081
			c-0.578,0-1.118-0.109-1.257-0.592h-0.013c-0.303,0.331-0.785,0.608-1.85,0.608c-1.444,0-2.371-0.747-2.371-2.111
			c0-1.255,0.954-1.751,2.345-1.971l1.364-0.221c0.359-0.057,0.415-0.098,0.415-0.304v-0.11c0-0.496-0.276-0.771-0.966-0.771
			c-0.701,0-1.089,0.29-1.089,0.951l-1.862-0.015c-0.026-1.502,1.187-2.316,3.035-2.316c1.682,0,2.742,0.525,2.742,2.013V29.627
			L75.098,29.627z M73.222,28.289c-0.152,0.055-0.275,0.124-0.978,0.264c-0.651,0.123-1.132,0.234-1.132,0.799
			c0,0.539,0.401,0.771,0.979,0.771c0.663,0,1.131-0.305,1.131-0.993V28.289z"/>
		<path fill="#FFFFFF" d="M82.151,29.627c0,0.414,0.057,0.552,0.343,0.552h0.097v1.159c-0.3,0.056-0.604,0.081-0.938,0.081
			c-0.579,0-1.116-0.109-1.255-0.592h-0.013c-0.303,0.331-0.787,0.608-1.847,0.608c-1.45,0-2.374-0.747-2.374-2.111
			c0-1.255,0.951-1.751,2.345-1.971l1.366-0.221c0.357-0.057,0.414-0.098,0.414-0.304v-0.11c0-0.496-0.277-0.771-0.966-0.771
			c-0.703,0-1.09,0.29-1.09,0.951l-1.862-0.015c-0.029-1.502,1.187-2.316,3.033-2.316c1.685,0,2.744,0.525,2.744,2.013v3.047
			L82.151,29.627L82.151,29.627z M80.275,28.289c-0.151,0.055-0.275,0.124-0.979,0.264c-0.649,0.123-1.131,0.234-1.131,0.799
			c0,0.539,0.398,0.771,0.979,0.771c0.66,0,1.131-0.305,1.131-0.993V28.289L80.275,28.289z"/>
		<path fill="#FFFFFF" d="M87.967,26.703c-0.482-0.442-1.131-0.718-1.777-0.718c-0.458,0-0.857,0.152-0.857,0.483
			c0,0.346,0.305,0.441,0.98,0.58l1.031,0.22c1.064,0.219,2.028,0.648,2.028,1.902c0,1.53-1.338,2.262-2.894,2.262
			c-1.507,0-2.775-0.661-3.366-1.476l1.27-1.021c0.399,0.552,1.185,1.007,2.097,1.007c0.673,0,1.019-0.221,1.019-0.581
			c0-0.371-0.399-0.44-0.842-0.522l-1.034-0.209c-0.66-0.125-1.227-0.346-1.626-0.688c-0.357-0.303-0.564-0.731-0.564-1.283
			c0-1.558,1.506-2.123,2.799-2.123c1.229,0,2.205,0.454,2.87,1.089L87.967,26.703z"/>
		<path fill="#FFFFFF" d="M92.397,23.861h-2.029V21.89h2.029V23.861z M92.397,31.268h-2.029v-6.564h2.029V31.268z"/>
		<path fill="#FFFFFF" d="M99.961,29.641c-0.357,0.923-1.283,1.792-3.023,1.792c-2.065,0-3.473-1.2-3.473-3.421
			s1.407-3.475,3.473-3.475c1.822,0,2.761,0.979,3.092,2.04l-1.738,0.593c-0.194-0.716-0.649-1.116-1.354-1.116
			c-0.935,0-1.431,0.718-1.431,1.93c0,1.213,0.508,1.918,1.431,1.918c0.65,0,1.105-0.347,1.312-0.965L99.961,29.641z"/>
	</g>
</g>
<g>
	<g>
		<path fill="#FFFFFF" d="M47.901,20.15l3.76,6.511l-3.76,6.511h-7.518l-3.76-6.511l3.759-6.511H47.901 M49.519,17.349H38.767
			l-5.377,9.312l5.377,9.313h10.752l5.377-9.313L49.519,17.349L49.519,17.349z"/>
	</g>
</g>
</svg>
