<?xml version="1.0" encoding="utf-8"?>
<!-- Generator: Adobe Illustrator 19.1.0, SVG Export Plug-In . SVG Version: 6.00 Build 0)  -->
<svg version="1.1" id="Layer_1" xmlns="http://www.w3.org/2000/svg" xmlns:xlink="http://www.w3.org/1999/xlink" x="0px" y="0px"
	 width="48px" height="48px" viewBox="-281 373 48 48" style="enable-background:new -281 373 48 48;" xml:space="preserve">
<style type="text/css">
	.st0{fill:#222222;}
</style>
<path class="st0" d="M-257,373.6c-13.3,0-24,10.7-24,24c0,10.6,6.9,19.6,16.4,22.8c1.2,0.2,1.6-0.5,1.6-1.2c0-0.6,0-2.1,0-4.1
	c-6.7,1.4-8.1-3.2-8.1-3.2c-1.1-2.8-2.7-3.5-2.7-3.5c-2.2-1.5,0.2-1.5,0.2-1.5c2.4,0.2,3.7,2.5,3.7,2.5c2.1,3.7,5.6,2.6,7,2
	c0.2-1.6,0.8-2.6,1.5-3.2c-5.3-0.6-10.9-2.7-10.9-11.9c0-2.6,0.9-4.8,2.5-6.4c-0.2-0.6-1.1-3,0.2-6.4c0,0,2-0.6,6.6,2.5
	c1.9-0.5,4-0.8,6-0.8c2,0,4.1,0.3,6,0.8c4.6-3.1,6.6-2.5,6.6-2.5c1.3,3.3,0.5,5.7,0.2,6.4c1.5,1.7,2.5,3.8,2.5,6.4
	c0,9.2-5.6,11.2-11,11.8c0.9,0.7,1.6,2.2,1.6,4.4c0,3.2,0,5.8,0,6.6c0,0.6,0.4,1.4,1.6,1.2c9.5-3.2,16.4-12.2,16.4-22.8
	C-233,384.3-243.7,373.6-257,373.6z"/>
</svg>
