<?xml version="1.0" encoding="utf-8"?>
<!-- Generator: Adobe Illustrator 16.0.0, SVG Export Plug-In . SVG Version: 6.00 Build 0)  -->
<!DOCTYPE svg PUBLIC "-//W3C//DTD SVG 1.1//EN" "http://www.w3.org/Graphics/SVG/1.1/DTD/svg11.dtd">
<svg version="1.1" id="Layer_1" xmlns="http://www.w3.org/2000/svg" xmlns:xlink="http://www.w3.org/1999/xlink" x="0px" y="0px"
	 width="24px" height="24px" viewBox="0 0 24 24" enable-background="new 0 0 24 24" xml:space="preserve">
<path fill="#4D4D4D" d="M10,1c1.219,0,2.384,0.238,3.496,0.715c1.111,0.478,2.068,1.116,2.871,1.918
	c0.802,0.802,1.441,1.759,1.918,2.871S19,8.781,19,10c0,1.047-0.171,2.05-0.512,3.008c-0.342,0.959-0.827,1.828-1.457,2.609
	l5.68,5.672C22.904,21.482,23,21.719,23,22c0,0.287-0.096,0.525-0.285,0.715S22.287,23,22,23c-0.281,0-0.519-0.096-0.711-0.289
	l-5.672-5.68c-0.781,0.63-1.651,1.115-2.609,1.457S11.047,19,10,19c-1.219,0-2.384-0.238-3.496-0.715
	c-1.112-0.477-2.069-1.116-2.871-1.918c-0.802-0.803-1.441-1.76-1.918-2.871C1.238,12.384,1,11.219,1,10s0.238-2.384,0.715-3.496
	c0.477-1.112,1.116-2.069,1.918-2.871c0.802-0.802,1.759-1.44,2.871-1.918C7.616,1.238,8.781,1,10,1z M10,3
	C9.052,3,8.146,3.185,7.281,3.556C6.417,3.925,5.672,4.423,5.047,5.047C4.422,5.672,3.925,6.417,3.555,7.28
	C3.185,8.146,3,9.052,3,10s0.185,1.854,0.555,2.719c0.37,0.865,0.867,1.609,1.492,2.234c0.625,0.625,1.37,1.122,2.234,1.492
	C8.146,16.814,9.052,17,10,17s1.854-0.186,2.719-0.555c0.865-0.37,1.609-0.867,2.234-1.492s1.122-1.369,1.492-2.234
	C16.814,11.854,17,10.948,17,10s-0.186-1.854-0.555-2.72c-0.37-0.863-0.867-1.608-1.492-2.233c-0.625-0.624-1.369-1.122-2.234-1.491
	C11.854,3.185,10.948,3,10,3z"/>
</svg>
