<?xml version="1.0" encoding="utf-8"?>
<!-- Generator: Adobe Illustrator 19.1.0, SVG Export Plug-In . SVG Version: 6.00 Build 0)  -->
<svg version="1.1" id="Layer_1" xmlns="http://www.w3.org/2000/svg" xmlns:xlink="http://www.w3.org/1999/xlink" x="0px" y="0px"
	 width="48px" height="48px" viewBox="-305 397 48 48" style="enable-background:new -305 397 48 48;" xml:space="preserve">
<style type="text/css">
	.st0{fill:#555555;}
</style>
<path class="st0" d="M-302.4,410.2c-0.1,0.2-0.3,0.4-0.4,0.7c-2,4.2-2.7,8.6-2.1,13.2c0.4,2.7,1.1,5.2,2.4,7.6
	c1.5,3.1,3.7,5.8,6.5,7.9c6.7,5.2,14.2,6.5,22.4,4.4c3.5-0.9,6.6-2.5,9.2-4.9c1.5-1.3,2.8-2.8,3.8-4.5c3.3-5.5,4.1-11.5,3.2-17.7
	c-0.1-0.5-0.3-0.5-0.7-0.5c-7.3,0-14.6,0-21.8,0c-0.6,0-0.7,0.2-0.7,0.7c0,2.6,0,5.2,0,7.9c0,0.8,0,0.8,0.8,0.8c3.9,0,7.9,0,11.8,0
	c0.7,0,0.7,0.2,0.6,0.7c-0.2,0.8-0.5,1.5-0.8,2.2c-0.9,1.8-2.2,3.2-3.8,4.4c-2,1.2-4.2,2-6.6,2.2c-5.1,0.5-9.4-1.1-12.8-4.8
	c-1.4-1.5-2.3-3.2-3-5c-1-3.1-1-6.3,0.1-9.4c0.9-2.3,2.2-4.4,4.1-6.1c5.4-5,13.8-5,18.9-0.4c0.4,0.3,0.5,0.1,0.7-0.1
	c2-2,4.1-4,6.1-6c0.4-0.4,0.3-0.6-0.1-0.9c-5.8-4.9-12.5-6.6-20.1-5.5c-5.4,0.8-9.9,3.3-13.7,7.2
	C-299.9,406.2-301.4,408.1-302.4,410.2L-302.4,410.2z"/>
</svg>
