<?xml version="1.0" encoding="utf-8"?>
<!-- Generator: Adobe Illustrator 16.0.3, SVG Export Plug-In . SVG Version: 6.00 Build 0)  -->
<!DOCTYPE svg PUBLIC "-//W3C//DTD SVG 1.1//EN" "http://www.w3.org/Graphics/SVG/1.1/DTD/svg11.dtd">
<svg version="1.1" id="Layer_1" xmlns="http://www.w3.org/2000/svg" xmlns:xlink="http://www.w3.org/1999/xlink" x="0px" y="0px"
	 width="100px" height="100px" viewBox="0 0 100 100" enable-background="new 0 0 100 100" xml:space="preserve">
<g>
	<path fill="#FFFFFF" d="M5.184,4.608L3.319,4.301L3.242,3.331h6.643c3.321,0,6.157,1.125,6.157,4.88
		c0,2.887-1.66,4.241-3.935,4.727c1.125,1.481,3.373,4.497,4.65,6.234l1.507,0.255l0.179,1.047l-3.041-0.025h-0.613
		c0,0-4.114-5.596-5.417-7.307H7.56l0.026,6.004l2.861,0.333l0.179,0.971H3.498L3.6,19.478l1.609-0.333
		C5.209,18.507,5.184,5.426,5.184,4.608z M7.56,4.659v7.179h1.865c3.219,0,4.088-1.507,4.088-3.628s-1.354-3.577-4.088-3.577
		C9.067,4.633,8.02,4.659,7.56,4.659z"/>
	<path fill="#FFFFFF" d="M24.88,20.781c-4.037,0-5.468-3.27-5.468-6.336c0-4.548,2.964-6.541,5.621-6.541
		c4.727,0,4.676,3.96,4.676,4.701c0,0.741-0.077,1.201-0.077,1.201s-5.339,0.102-7.92,0.127c0,2.683,0.946,5.136,3.705,5.136
		c2.657,0,3.858-0.767,3.858-0.767s0.281,0.945,0.281,0.919C29.556,19.222,27.639,20.781,24.88,20.781z M21.763,12.912
		c1.431-0.128,5.646-0.563,5.646-0.563v-0.307c0-0.843-0.179-3.014-2.427-3.014C22.734,9.028,21.941,10.868,21.763,12.912z"/>
	<path fill="#FFFFFF" d="M60.748,13.192v1.533H36.732v-1.533H60.748z"/>
	<path fill="#FFFFFF" d="M11.111,31.141l-0.128-0.894h4.65l-0.103,0.894l-1.533,0.358L9.91,42.434l-1.941,0.153L3.523,31.499
		l-1.431-0.358L1.99,30.247h5.392l-0.154,0.894l-1.354,0.358c0.025,0.281,2.657,6.796,3.398,8.636
		c0.971-2.683,3.194-8.636,3.194-8.636L11.111,31.141z"/>
	<path fill="#FFFFFF" d="M20.23,41.259l1.457,0.358l0.153,0.894h-5.314l0.102-0.894l1.457-0.358v-9.504l-1.508-0.307v-0.895
		l3.654-0.588V41.259z M19.183,24.728c0.818,0,1.481,0.665,1.481,1.482c0,0.817-0.664,1.482-1.481,1.482
		c-0.817,0-1.482-0.665-1.482-1.482C17.701,25.393,18.365,24.728,19.183,24.728z"/>
	<path fill="#FFFFFF" d="M27.945,41.565c1.277,0,2.759-0.511,2.759-2.095c0-2.581-6.796-2.734-6.796-5.979
		c0-2.3,1.942-3.679,4.267-3.679c2.274,0,4.063,0.536,4.063,0.536l-0.153,3.321h-1.201l-0.715-2.273
		c0.025,0-0.818-0.434-2.019-0.434c-1.124,0-2.121,0.613-2.121,1.813c0,2.172,6.771,2.479,6.771,6.081
		c0,2.632-2.402,3.857-4.905,3.857c-2.3,0-4.216-0.766-4.216-0.766l0.154-3.347h1.277l0.715,2.376
		C25.825,40.978,26.54,41.565,27.945,41.565z"/>
	<path fill="#FFFFFF" d="M38.342,41.259l1.457,0.358l0.153,0.894h-5.314l0.102-0.894l1.457-0.358v-9.504l-1.507-0.307v-0.895
		l3.653-0.588V41.259z M37.295,24.728c0.817,0,1.481,0.665,1.481,1.482c0,0.817-0.664,1.482-1.481,1.482
		c-0.818,0-1.482-0.665-1.482-1.482C35.813,25.393,36.477,24.728,37.295,24.728z"/>
	<path fill="#FFFFFF" d="M7.023,52.335h3.628v1.277H7.023V61.2c0,1.149,0.077,2.043,0.945,2.043c1.124,0,2.785-0.612,2.785-0.612
		s0.23,0.971,0.23,0.946c0.051,0.05-2.223,1.149-3.602,1.149c-1.662,0-2.504-0.868-2.504-2.76v-8.354H3.14v-1.277h1.686l0.894-2.811
		l1.227-0.204L7.023,52.335z"/>
	<path fill="#FFFFFF" d="M18.519,64.906c-4.037,0-5.467-3.271-5.467-6.337c0-4.548,2.964-6.541,5.621-6.541
		c4.727,0,4.676,3.96,4.676,4.701c0,0.74-0.077,1.201-0.077,1.201s-5.339,0.102-7.92,0.128c0,2.681,0.946,5.135,3.705,5.135
		c2.657,0,3.858-0.767,3.858-0.767s0.281,0.946,0.281,0.921C23.194,63.348,21.278,64.906,18.519,64.906z M15.401,57.035
		c1.431-0.127,5.646-0.561,5.646-0.561v-0.308c0-0.843-0.178-3.014-2.427-3.014C16.373,53.153,15.581,54.992,15.401,57.035z"/>
	<path fill="#FFFFFF" d="M35.891,63.169l1.456,0.51l0.128,0.894l-3.373,0.358l-0.332-1.252v0.025
		c-1.559,0.868-3.143,1.202-3.654,1.202c-2.964,0-4.599-2.223-4.599-5.596c0-3.884,1.891-7.282,6.336-7.282
		c0.715,0,1.354,0.051,1.917,0.152v-4.062l-1.687-0.307v-0.894l3.781-0.563C35.891,55.223,35.891,62.554,35.891,63.169z
		 M33.771,62.656v-8.891c-0.537-0.229-1.277-0.435-2.3-0.435c-2.453,0-3.755,2.044-3.755,4.905c0,2.299,0.434,5.007,3.27,5.007
		C32.288,63.243,33.771,62.606,33.771,62.656z"/>
</g>
<g>
	<path fill="#FFFFFF" d="M3.882,79.169h5.823l-0.01,0.011h0.01l-0.073,1.579l-0.45-0.084l-0.219-0.971H7.28v5.914l0.752,0.137
		l0.073,0.398H5.502l0.042-0.398l0.763-0.137v-5.914H4.624l-0.22,0.971l-0.449,0.084L3.882,79.18V79.169z"/>
	<path fill="#FFFFFF" d="M12.41,79.692l-0.763-0.125l-0.031-0.398h2.718c1.359,0,2.52,0.46,2.52,1.998
		c0,1.182-0.68,1.734-1.61,1.935c0.46,0.605,1.38,1.839,1.903,2.549l0.617,0.104l0.073,0.429l-1.244-0.01H16.34
		c0,0-1.683-2.29-2.216-2.991h-0.742l0.01,2.459l1.171,0.136l0.073,0.396H11.72l0.042-0.396l0.658-0.136
		C12.42,85.378,12.41,80.025,12.41,79.692z M13.382,79.713v2.937h0.763c1.317,0,1.673-0.616,1.673-1.482
		c0-0.869-0.555-1.463-1.673-1.463C13.998,79.704,13.57,79.713,13.382,79.713z"/>
	<path fill="#FFFFFF" d="M21.241,85.807l0.052,0.367h-2.049l0.042-0.367l0.575-0.146l2.258-6.408l0.972-0.157l2.499,6.546
		l0.71,0.124l0.032,0.397h-2.603l0.083-0.397l0.721-0.124c-0.052-0.168-0.397-1.098-0.805-2.164h-2.467
		c-0.408,1.18-0.743,2.184-0.743,2.184L21.241,85.807z M21.439,82.942h2.09l-1.098-2.894L21.439,82.942z"/>
	<path fill="#FFFFFF" d="M32.257,79.536l-0.052-0.367h2.048l-0.041,0.367l-0.575,0.145l-2.279,6.473l-0.972,0.041l-2.332-6.49
		l-0.701-0.127l-0.031-0.397h2.603l-0.084,0.397l-0.753,0.136c0.126,0.396,1.61,4.506,1.955,5.477
		c0.502-1.419,1.913-5.509,1.913-5.509L32.257,79.536z"/>
	<path fill="#FFFFFF" d="M36.153,86.153l0.042-0.398l0.763-0.137v-1.41c-0.01-1.746-0.01-4.234-0.01-4.495l-0.753-0.136
		l-0.042-0.408l5.332,0.011l-0.074,1.579l-0.449-0.084l-0.22-0.962h-2.823v2.592h2.101l0.209-0.709h0.398v1.943h-0.398l-0.209-0.701
		h-2.101l0.01,2.78h2.813l0.22-0.961l0.449-0.082l0.074,1.578H36.153z"/>
	<path fill="#FFFFFF" d="M43.552,86.153l0.042-0.398l0.763-0.137c0-0.302-0.01-5.569-0.01-5.905l-0.763-0.136l-0.032-0.397h2.604
		l-0.084,0.397l-0.753,0.136l0.012,5.905h2.54l0.282-1.17l0.449-0.084l0.073,1.789H43.552z"/>
	<path fill="#FFFFFF" d="M50.428,86.153l0.042-0.398l0.763-0.137c0-0.302-0.011-5.569-0.011-5.905l-0.763-0.136l-0.032-0.397h2.603
		l-0.083,0.397l-0.753,0.136l0.011,5.905h2.54l0.282-1.17l0.449-0.084l0.074,1.789H50.428z"/>
	<path fill="#FFFFFF" d="M57.347,86.153l0.042-0.398l0.763-0.137v-1.41c-0.01-1.746-0.01-4.234-0.01-4.495l-0.753-0.136
		l-0.042-0.408l5.331,0.011l-0.073,1.579l-0.449-0.084l-0.22-0.962h-2.822v2.592h2.101l0.209-0.709h0.398v1.943h-0.398l-0.209-0.701
		h-2.101l0.01,2.78h2.813l0.22-0.961l0.449-0.082l0.073,1.578H57.347z"/>
	<path fill="#FFFFFF" d="M65.54,79.692l-0.763-0.125l-0.032-0.398h2.719c1.359,0,2.52,0.46,2.52,1.998
		c0,1.182-0.68,1.734-1.61,1.935c0.46,0.605,1.38,1.839,1.902,2.549l0.617,0.104l0.072,0.429l-1.244-0.01h-0.25
		c0,0-1.683-2.29-2.216-2.991h-0.743l0.012,2.459l1.17,0.136l0.074,0.396H64.85l0.042-0.396l0.659-0.136
		C65.551,85.378,65.54,80.025,65.54,79.692z M66.512,79.713v2.937h0.764c1.317,0,1.673-0.616,1.673-1.482
		c0-0.869-0.554-1.463-1.673-1.463C67.129,79.704,66.7,79.713,66.512,79.713z"/>
	<path fill="#FFFFFF" d="M77.413,81.01H76.89l-0.271-1.149c-0.261-0.136-0.658-0.231-1.265-0.231c-0.731,0-1.254,0.231-1.254,0.941
		c0,1.182,3.647,1.662,3.647,3.533c0,1.494-1.212,2.228-2.55,2.228c-0.837,0-2.061-0.305-2.061-0.305l0.012-0.009l0.082-1.737h0.523
		l0.282,1.257c0.282,0.136,0.7,0.218,1.213,0.218c0.773,0,1.515-0.281,1.515-1.315c0-1.497-3.563-1.83-3.563-3.473
		c0-1.358,0.993-1.892,2.153-1.892c1.014,0,2.144,0.241,2.144,0.241L77.413,81.01z"/>
	<path fill="#FFFFFF" d="M4.969,91.315L4.206,91.18L4.175,90.78h2.718c2.143,0,3.325,1.518,3.325,3.504
		c0,1.984-1.182,3.502-3.325,3.502H4.279l0.042-0.397l0.658-0.136C4.979,96.99,4.969,91.669,4.969,91.315z M5.941,91.315l0.01,5.938
		h0.752c1.307-0.012,2.468-0.744,2.468-2.928c0-2.048-1.182-3.01-2.468-3.01H5.941z"/>
	<path fill="#FFFFFF" d="M14.103,97.23l0.753,0.136l0.073,0.399h-2.603l0.042-0.399l0.763-0.136v-5.906l-0.763-0.136l-0.042-0.396
		h2.603l-0.073,0.396l-0.753,0.136V97.23z"/>
	<path fill="#FFFFFF" d="M18.314,97.418l0.052,0.368h-2.049l0.042-0.368l0.575-0.145l2.258-6.409l0.972-0.156l2.499,6.545
		l0.71,0.125l0.032,0.396h-2.603l0.083-0.396l0.721-0.125c-0.052-0.168-0.397-1.098-0.804-2.164h-2.468
		c-0.408,1.18-0.742,2.185-0.742,2.185L18.314,97.418z M18.513,94.554h2.09l-1.097-2.894L18.513,94.554z"/>
	<path fill="#FFFFFF" d="M25.901,91.304l-0.763-0.124l-0.031-0.399h2.718c1.358,0,2.519,0.46,2.519,1.998
		c0,1.182-0.679,1.735-1.609,1.935c0.459,0.605,1.38,1.839,1.903,2.549l0.616,0.104l0.074,0.429l-1.244-0.009h-0.251
		c0,0-1.684-2.291-2.217-2.992h-0.742l0.01,2.459l1.171,0.136l0.073,0.397h-2.917l0.042-0.397l0.658-0.136
		C25.912,96.99,25.901,91.638,25.901,91.304z M26.874,91.324v2.938h0.763c1.317,0,1.673-0.617,1.673-1.483
		c0-0.869-0.555-1.463-1.673-1.463C27.49,91.315,27.062,91.324,26.874,91.324z"/>
	<path fill="#FFFFFF" d="M37.032,91.147l-0.052-0.367h2.112l-0.042,0.367l-0.607,0.146l-2.081,3.669v2.291l0.753,0.136l0.074,0.397
		h-2.604l0.042-0.397l0.763-0.136v-2.3l-2.143-3.66l-0.522-0.146l-0.042-0.367h2.331l-0.062,0.367l-0.617,0.146
		c0,0.031,1.777,2.991,1.777,2.991l1.652-2.991L37.032,91.147z"/>
</g>
</svg>
