<?xml version="1.0" encoding="utf-8"?>
<!-- Generator: Adobe Illustrator 16.0.3, SVG Export Plug-In . SVG Version: 6.00 Build 0)  -->
<!DOCTYPE svg PUBLIC "-//W3C//DTD SVG 1.1//EN" "http://www.w3.org/Graphics/SVG/1.1/DTD/svg11.dtd">
<svg version="1.1" id="Layer_1" xmlns="http://www.w3.org/2000/svg" xmlns:xlink="http://www.w3.org/1999/xlink" x="0px" y="0px"
	 width="46.578px" height="47.454px" viewBox="0 0 46.578 47.454" style="enable-background:new 0 0 46.578 47.454;"
	 xml:space="preserve">
<g>
	<polygon style="fill:#ED1E79;" points="15.218,19.159 20.872,27.813 22.36,27.813 22.361,27.813 22.361,16.583 20.888,16.583 
		20.888,25.276 15.218,16.583 13.73,16.583 13.73,27.813 15.218,27.813 	"/>
	<path style="fill:#ED1E79;" d="M30.985,26.277c-0.416,0.32-1.016,0.479-1.797,0.479c-0.838,0-1.509-0.196-2.01-0.59
		c-0.503-0.394-0.753-0.93-0.753-1.608h-1.487c0,0.653,0.181,1.237,0.543,1.751c0.363,0.514,0.879,0.919,1.547,1.215
		s1.39,0.443,2.16,0.443c1.188,0,2.136-0.273,2.847-0.821c0.709-0.548,1.063-1.276,1.063-2.187c0-0.571-0.128-1.067-0.384-1.489
		c-0.254-0.421-0.645-0.791-1.172-1.106c-0.526-0.317-1.258-0.606-2.189-0.869c-0.932-0.263-1.594-0.553-1.98-0.869
		c-0.39-0.317-0.584-0.705-0.584-1.163c0-0.572,0.205-1.019,0.613-1.341c0.409-0.322,0.979-0.483,1.708-0.483
		c0.787,0,1.397,0.195,1.828,0.584c0.431,0.389,0.647,0.925,0.647,1.606h1.488c0-0.622-0.166-1.196-0.498-1.72
		c-0.33-0.525-0.799-0.936-1.402-1.234c-0.604-0.298-1.293-0.447-2.063-0.447c-1.131,0-2.051,0.29-2.757,0.868
		c-0.708,0.578-1.063,1.31-1.063,2.194c0,0.782,0.291,1.439,0.869,1.971c0.578,0.533,1.502,0.98,2.771,1.346
		c1.013,0.292,1.713,0.589,2.1,0.89c0.387,0.301,0.579,0.728,0.579,1.277C31.61,25.525,31.401,25.958,30.985,26.277z"/>
	<polygon style="fill:#ED1E79;" points="15.21,36.881 19.923,36.881 19.923,35.67 15.21,35.67 15.21,31.822 20.687,31.822 
		20.687,30.612 13.73,30.612 13.73,41.842 15.21,41.842 	"/>
	<polygon style="fill:#ED1E79;" points="28.305,41.842 29.787,41.842 29.787,37.654 33.658,30.612 31.976,30.612 29.044,36.25 
		26.13,30.612 24.433,30.612 28.305,37.654 	"/>
	<path style="fill:#ED1E79;" d="M46.263,21.079c0-2.156-2.493-3.827-5.955-4.129v-5.013l1.91,0.523
		c0.089,0.024,0.178,0.036,0.266,0.036c0.438,0,0.842-0.292,0.964-0.736c0.146-0.532-0.168-1.083-0.7-1.229L29.461,6.889
		c0.313-1.973-0.901-3.907-2.874-4.422c-1.015-0.264-2.075-0.118-2.982,0.414c-0.767,0.45-1.33,1.137-1.651,1.95L8.343,1.1
		C7.809,0.951,7.261,1.267,7.115,1.8c-0.146,0.532,0.167,1.083,0.7,1.229L34.9,10.454H7.308c-0.552,0-1,0.448-1,1v5.517
		c-3.333,0.358-5.705,2.003-5.705,4.107c0,2.104,2.373,3.75,5.705,4.109v21.267c0,0.553,0.448,1,1,1h32c0.553,0,1-0.447,1-1V25.208
		C43.77,24.907,46.263,23.235,46.263,21.079z M24.618,4.606c0.446-0.261,0.969-0.333,1.465-0.203
		c0.897,0.234,1.482,1.065,1.444,1.956l-3.631-0.996C24.062,5.052,24.305,4.789,24.618,4.606z M2.603,21.078
		c0-0.749,1.413-1.772,3.705-2.082v4.165C4.016,22.852,2.603,21.827,2.603,21.078z M38.308,45.454h-30v-33h30V45.454z
		 M40.308,23.201v-4.244c2.445,0.264,3.955,1.346,3.955,2.122S42.753,22.938,40.308,23.201z"/>
</g>
<g id="Layer_1_1_">
</g>
</svg>
