<?xml version="1.0" encoding="utf-8"?>
<!-- Generator: Adobe Illustrator 16.0.3, SVG Export Plug-In . SVG Version: 6.00 Build 0)  -->
<!DOCTYPE svg PUBLIC "-//W3C//DTD SVG 1.1//EN" "http://www.w3.org/Graphics/SVG/1.1/DTD/svg11.dtd">
<svg version="1.1" id="Layer_1" xmlns="http://www.w3.org/2000/svg" xmlns:xlink="http://www.w3.org/1999/xlink" x="0px" y="0px"
	 width="46.578px" height="54.227px" viewBox="0 -6.773 46.578 54.227" enable-background="new 0 -6.773 46.578 54.227"
	 xml:space="preserve">
<g id="Layer_1_1_">
</g>
<path fill="#595959" d="M43.318,18.227l-1.221-5h-3.309v-6h-30v6H4.98l-1.221,5l1.221,5h3.809v22h30v-22h3.309L43.318,18.227z
	 M32.002,21.621c-0.105-0.192-0.254-0.362-0.445-0.509c-0.193-0.146-0.424-0.274-0.689-0.385c-0.266-0.109-0.555-0.211-0.867-0.304
	c-0.42-0.122-0.834-0.273-1.242-0.454s-0.771-0.401-1.092-0.663c-0.32-0.261-0.578-0.566-0.775-0.915
	c-0.197-0.35-0.297-0.753-0.297-1.213c0-0.458,0.1-0.87,0.297-1.233c0.197-0.364,0.463-0.673,0.795-0.927s0.717-0.449,1.156-0.586
	s0.898-0.205,1.377-0.205c0.514,0,0.992,0.079,1.439,0.238c0.447,0.158,0.838,0.381,1.172,0.666c0.334,0.286,0.6,0.628,0.795,1.025
	c0.195,0.398,0.295,0.839,0.301,1.322h-1.758c-0.025-0.269-0.082-0.514-0.172-0.736c-0.092-0.222-0.219-0.414-0.381-0.574
	c-0.164-0.162-0.363-0.286-0.598-0.374s-0.506-0.132-0.813-0.132c-0.264,0-0.508,0.034-0.732,0.103s-0.42,0.169-0.582,0.3
	c-0.164,0.133-0.293,0.291-0.385,0.477c-0.094,0.186-0.141,0.396-0.141,0.63c0,0.249,0.064,0.465,0.191,0.648
	c0.127,0.183,0.293,0.343,0.498,0.479s0.439,0.255,0.707,0.355c0.266,0.1,0.543,0.191,0.83,0.274
	c0.445,0.132,0.869,0.294,1.275,0.487c0.404,0.192,0.762,0.425,1.068,0.695c0.309,0.271,0.553,0.585,0.732,0.941
	c0.182,0.356,0.271,0.765,0.271,1.223c0,0.475-0.1,0.892-0.301,1.253c-0.199,0.361-0.469,0.664-0.805,0.908
	c-0.338,0.244-0.729,0.429-1.172,0.553c-0.445,0.125-0.908,0.187-1.393,0.187c-0.326,0-0.65-0.031-0.973-0.095
	s-0.633-0.158-0.928-0.286c-0.295-0.126-0.57-0.284-0.824-0.472c-0.254-0.188-0.475-0.405-0.662-0.652
	c-0.188-0.246-0.336-0.522-0.443-0.827c-0.107-0.306-0.164-0.641-0.168-1.008h1.766c0.023,0.322,0.094,0.604,0.211,0.843
	s0.273,0.438,0.469,0.597c0.195,0.159,0.424,0.278,0.686,0.359c0.262,0.08,0.551,0.121,0.867,0.121c0.264,0,0.512-0.032,0.74-0.096
	c0.23-0.063,0.43-0.157,0.602-0.282c0.17-0.124,0.305-0.278,0.402-0.461c0.098-0.184,0.146-0.392,0.146-0.626
	C32.16,22.038,32.107,21.814,32.002,21.621z M6.551,21.227l-0.732-3l0.732-3h2.238v6H6.551z M14.789,14.374h1.78l3.457,7.316
	l0.015-7.316h1.78v10.664h-1.772l-3.472-7.339l-0.007,7.339h-1.78V14.374z M21.967,31.824h-5.134v3.229h4.475v1.443h-4.475v4.541
	H15.06V30.374h6.907V31.824z M31.199,37.208l-0.014,3.83h-1.707l-0.014-3.875l-3.305-6.789h1.963l2.221,5.098l2.219-5.098h1.963
	L31.199,37.208z M40.527,21.227h-1.738v-6h1.738l0.732,3L40.527,21.227z"/>
<g>
	<path fill="#595959" d="M21.112,6.122c-1.605-0.803-2.323-3.302-2.323-5.423c0-1.01,0.172-2.79,1.323-3.366
		c0.22-0.11,0.278-0.229,0.308-0.342c0.166-0.625-0.406-1.778-0.693-2.208l1.664-1.109c0.145,0.217,1.403,2.171,0.962,3.832
		c-0.189,0.712-0.655,1.271-1.347,1.618c-0.135,0.186-0.378,1.503-0.074,3.065c0.211,1.083,0.633,1.926,1.074,2.146L21.112,6.122z"
		/>
</g>
<g>
	<path fill="#595959" d="M26.052,6.902c-0.241-0.263-1.426-1.643-1.093-3.007c0.12-0.489,0.476-1.148,1.488-1.517
		c0.04-0.078,0.232-0.781,0.01-1.719c-0.184-0.772-0.562-1.33-1.01-1.494l0.684-1.879C27.8-2.106,28.56-0.094,28.56,1.52
		c0,1.389-0.534,2.413-1.429,2.738c-0.187,0.068-0.236,0.128-0.236,0.128c-0.037,0.173,0.289,0.791,0.632,1.165L26.052,6.902z"/>
</g>
</svg>
