<?xml version="1.0" encoding="utf-8"?>
<!-- Generator: Adobe Illustrator 16.0.3, SVG Export Plug-In . SVG Version: 6.00 Build 0)  -->
<!DOCTYPE svg PUBLIC "-//W3C//DTD SVG 1.1//EN" "http://www.w3.org/Graphics/SVG/1.1/DTD/svg11.dtd">
<svg version="1.1" id="Layer_1" xmlns="http://www.w3.org/2000/svg" xmlns:xlink="http://www.w3.org/1999/xlink" x="0px" y="0px"
	 width="95px" height="80px" viewBox="0 0 95 80" enable-background="new 0 0 95 80" xml:space="preserve">
<g>
	<polygon fill="none" stroke="#333333" stroke-width="3" stroke-miterlimit="10" points="32.699,25.5 45.85,2.723 59,25.5 	"/>
	<polygon fill="none" stroke="#333333" stroke-width="3" stroke-miterlimit="10" points="59,1.5 45.85,24.277 32.699,1.5 	"/>
	<g>
		<path fill="#333333" d="M0.382,56.436L3.826,54.7c0.896,1.792,2.324,3.276,4.34,3.276c1.792,0,2.744-0.953,2.744-2.353
			c0-1.708-1.708-2.492-3.668-3.332c-2.716-1.147-6.048-2.464-6.048-6.636c0-3.444,2.8-5.768,6.58-5.768
			c3.556,0,5.712,1.988,6.972,4.62l-3.304,1.793c-0.868-1.736-2.016-2.912-3.752-2.912c-1.484,0-2.324,0.896-2.324,2.071
			c0,1.652,1.568,2.437,3.416,3.276c2.772,1.203,6.3,2.52,6.3,6.72c0,3.136-2.408,5.907-6.916,5.907
			C4.106,61.363,1.782,59.348,0.382,56.436z"/>
		<path fill="#333333" d="M21.634,40.28h6.272c3.836,0,7.224,1.512,7.224,6.663c0,5.461-3.696,6.832-7.28,6.832h-2.016V61h-4.2
			V40.28z M27.962,50.416c2.212,0,3.108-1.064,3.108-3.359c0-2.213-0.868-3.221-3.136-3.221h-2.1v6.58H27.962z"/>
		<path fill="#333333" d="M42.844,61h-3.976l6.076-20.804h4.088L55.107,61h-4.283l-1.121-4.368h-5.711L42.844,61z M48.304,51.229
			c-0.56-2.185-1.008-3.725-1.4-5.656h-0.056c-0.364,1.96-0.84,3.443-1.428,5.628l-0.56,2.128h3.977L48.304,51.229z"/>
		<path fill="#333333" d="M59.648,50.611c0-7.391,3.332-10.723,8.064-10.723c4.508,0,6.439,2.799,7.057,7.139l-4.005,0.701
			c-0.476-2.828-1.26-4.2-3.192-4.2c-2.463,0-3.639,2.491-3.639,7.083c0,4.705,1.203,7.253,3.695,7.253
			c1.932,0,2.828-1.288,3.359-4.48l4.004,0.644c-0.756,4.173-2.715,7.336-7.391,7.336C62.841,61.363,59.648,58.088,59.648,50.611z"
			/>
		<path fill="#333333" d="M81.354,40.28h11.872v3.584H85.61v4.676h5.488v3.388H85.61V57.5h8.009V61H81.354V40.28z"/>
		<path fill="#333333" d="M29.073,80v-7.396h3.108c1.229,0,2.688,0.19,2.688,1.819c0,1.069-0.66,1.55-1.399,1.689v0.021
			c0.899,0.159,1.579,0.589,1.579,1.818c0,1.609-1.5,2.049-2.749,2.049H29.073z M31.032,75.553h0.95c0.719,0,0.989-0.28,0.989-0.71
			c0-0.439-0.27-0.71-0.969-0.71h-0.97V75.553z M31.032,78.501h1c0.75,0,1.069-0.29,1.069-0.8s-0.33-0.77-1.089-0.77h-0.979V78.501z
			"/>
		<path fill="#333333" d="M39.063,80v-7.396h1.999v5.787h3.108V80H39.063z"/>
		<path fill="#333333" d="M47.392,76.303c0-2.709,1.849-3.838,3.638-3.838c1.779,0,3.629,1.129,3.629,3.838
			c0,2.708-1.85,3.838-3.629,3.838C49.24,80.141,47.392,79.011,47.392,76.303z M52.658,76.303c0-1.359-0.59-2.189-1.629-2.189
			c-1.049,0-1.639,0.83-1.639,2.189c0,1.358,0.59,2.238,1.639,2.238C52.068,78.541,52.658,77.661,52.658,76.303z"/>
		<path fill="#333333" d="M58.197,76.271c0-2.318,1.279-3.807,3.478-3.807c1.399,0,2.599,0.469,3.118,2.408l-1.828,0.51
			c-0.291-0.949-0.721-1.27-1.3-1.27c-0.729,0-1.46,0.479-1.46,2.129c0,2.068,1.02,2.299,1.55,2.299c0.64,0,1.089-0.35,1.3-0.89
			h-1.08v-1.46h2.979V80h-1.569v-0.979h-0.021c-0.1,0.36-0.749,1.12-1.858,1.12C59.146,80.141,58.197,78.501,58.197,76.271z"/>
	</g>
</g>
</svg>
