<?xml version="1.0" encoding="utf-8"?>
<!-- Generator: Adobe Illustrator 16.0.3, SVG Export Plug-In . SVG Version: 6.00 Build 0)  -->
<!DOCTYPE svg PUBLIC "-//W3C//DTD SVG 1.1//EN" "http://www.w3.org/Graphics/SVG/1.1/DTD/svg11.dtd">
<svg version="1.1" id="Layer_1" xmlns="http://www.w3.org/2000/svg" xmlns:xlink="http://www.w3.org/1999/xlink" x="0px" y="0px"
	 width="48px" height="48px" viewBox="0 0 48 48" enable-background="new 0 0 48 48" xml:space="preserve">
<path fill="#555555" d="M48.05,9.05c-1.8,0.801-3.7,1.301-5.7,1.601c2-1.2,3.601-3.101,4.301-5.4c-1.9,1.101-4,1.9-6.301,2.4
	c-1.8-1.9-4.399-3.101-7.199-3.101c-5.4,0-9.801,4.4-9.801,9.801c0,0.8,0.101,1.5,0.301,2.199c-8.2-0.399-15.4-4.3-20.301-10.3
	c-0.8,1.5-1.3,3.101-1.3,5c0,3.4,1.7,6.4,4.4,8.2c-1.601-0.1-3.101-0.5-4.5-1.2v0.101c0,4.8,3.399,8.8,7.899,9.699
	c-0.8,0.2-1.699,0.301-2.6,0.301c-0.6,0-1.3-0.101-1.9-0.2c1.301,3.899,4.9,6.8,9.2,6.8c-3.399,2.6-7.6,4.2-12.2,4.2
	c-0.8,0-1.6,0-2.399-0.101c4.399,2.801,9.5,4.4,15.1,4.4c18.101,0,28-15,28-28c0-0.4,0-0.9,0-1.3
	C45.05,12.75,46.75,11.05,48.05,9.05z"/>
</svg>
