<?xml version="1.0" encoding="utf-8"?>
<!-- Generator: Adobe Illustrator 19.1.0, SVG Export Plug-In . SVG Version: 6.00 Build 0)  -->
<svg version="1.1" id="Layer_1" xmlns="http://www.w3.org/2000/svg" xmlns:xlink="http://www.w3.org/1999/xlink" x="0px" y="0px"
	 viewBox="0 0 32 64" style="enable-background:new 0 0 32 64;" xml:space="preserve">
<style type="text/css">
	.st0{fill:#FFFFFF;}
	.st1{fill:#2EA9E0;}
	.st2{fill:#3C5C9B;}
	.st3{fill:#0173B2;}
	.st4{fill:#E7412F;}
	.st5{fill-rule:evenodd;clip-rule:evenodd;fill:#FFFFFF;}
</style>
<g>
	<g>
		<path class="st0" d="M30,1c0.6,0,1,0.4,1,1v28c0,0.6-0.4,1-1,1H2c-0.6,0-1-0.4-1-1V2c0-0.6,0.4-1,1-1H30 M30,0H2C0.9,0,0,0.9,0,2
			v28c0,1.1,0.9,2,2,2h28c1.1,0,2-0.9,2-2V2C32,0.9,31.1,0,30,0L30,0z"/>
	</g>
	<path class="st5" d="M13.1,25.3H20h0.2c-0.1,0-0.2,0-0.2,0c-0.3-0.1-0.4-0.3-0.4-0.6c0-0.4,0-1.7,0-3.3c0-1.1-0.4-1.9-0.8-2.2
		c2.7-0.3,5.5-1.3,5.5-6c0-1.3-0.5-2.4-1.2-3.3c0.1-0.3,0.5-1.5-0.1-3.2c0,0-1-0.3-3.3,1.2c-1-0.3-2-0.4-3-0.4c-1,0-2.1,0.1-3,0.4
		c-2.3-1.6-3.3-1.2-3.3-1.2C9.6,8.4,10,9.6,10.1,9.9c-0.8,0.8-1.2,1.9-1.2,3.3c0,4.7,2.8,5.7,5.5,6c-0.3,0.3-0.7,0.8-0.8,1.6
		c-0.7,0.3-2.4,0.8-3.5-1c0,0-0.6-1.2-1.9-1.3c0,0-1.2,0-0.1,0.7c0,0,0.8,0.4,1.3,1.8c0,0,0.7,2.4,4.1,1.6c0,1,0,1.8,0,2.1
		c0,0.2-0.1,0.5-0.3,0.6L13.1,25.3z"/>
</g>
<g>
	<g>
		<path d="M30,64H2c-1.1,0-2-0.9-2-2V34c0-1.1,0.9-2,2-2h28c1.1,0,2,0.9,2,2v28C32,63.1,31.1,64,30,64z"/>
	</g>
	<path class="st5" d="M13.1,57.3H20h0.2c-0.1,0-0.2,0-0.2,0c-0.3-0.1-0.4-0.3-0.4-0.6c0-0.4,0-1.7,0-3.3c0-1.1-0.4-1.9-0.8-2.2
		c2.7-0.3,5.5-1.3,5.5-6c0-1.3-0.5-2.4-1.2-3.3c0.1-0.3,0.5-1.5-0.1-3.2c0,0-1-0.3-3.3,1.2c-1-0.3-2-0.4-3-0.4c-1,0-2.1,0.1-3,0.4
		c-2.3-1.6-3.3-1.2-3.3-1.2c-0.7,1.7-0.2,2.9-0.1,3.2c-0.8,0.8-1.2,1.9-1.2,3.3c0,4.7,2.8,5.7,5.5,6c-0.3,0.3-0.7,0.8-0.8,1.6
		c-0.7,0.3-2.4,0.8-3.5-1c0,0-0.6-1.2-1.9-1.3c0,0-1.2,0-0.1,0.7c0,0,0.8,0.4,1.3,1.8c0,0,0.7,2.4,4.1,1.6c0,1,0,1.8,0,2.1
		c0,0.2-0.1,0.5-0.3,0.6L13.1,57.3z"/>
</g>
</svg>
