<?xml version="1.0" encoding="utf-8"?>
<!-- Generator: Adobe Illustrator 16.0.3, SVG Export Plug-In . SVG Version: 6.00 Build 0)  -->
<!DOCTYPE svg PUBLIC "-//W3C//DTD SVG 1.1//EN" "http://www.w3.org/Graphics/SVG/1.1/DTD/svg11.dtd">
<svg version="1.1" id="Layer_1" xmlns="http://www.w3.org/2000/svg" xmlns:xlink="http://www.w3.org/1999/xlink" x="0px" y="0px"
	 width="48px" height="48px" viewBox="0 0 48 48" enable-background="new 0 0 48 48" xml:space="preserve">
<path fill="#555555" d="M24.05,0.583c-13.3,0-24,10.7-24,24c0,10.601,6.9,19.601,16.4,22.801c1.2,0.199,1.6-0.5,1.6-1.2
	c0-0.601,0-2.101,0-4.101c-6.7,1.4-8.1-3.199-8.1-3.199c-1.1-2.801-2.7-3.5-2.7-3.5c-2.2-1.5,0.2-1.5,0.2-1.5
	c2.4,0.199,3.7,2.5,3.7,2.5c2.1,3.699,5.6,2.6,7,2c0.2-1.601,0.8-2.601,1.5-3.2c-5.3-0.601-10.9-2.7-10.9-11.9
	c0-2.6,0.9-4.8,2.5-6.399c-0.2-0.601-1.1-3,0.2-6.4c0,0,2-0.6,6.6,2.5c1.9-0.5,4-0.8,6-0.8s4.101,0.3,6,0.8
	c4.601-3.1,6.601-2.5,6.601-2.5c1.299,3.3,0.5,5.7,0.199,6.4c1.5,1.699,2.5,3.8,2.5,6.399c0,9.2-5.6,11.2-11,11.799
	c0.9,0.7,1.6,2.2,1.6,4.4c0,3.2,0,5.8,0,6.6c0,0.601,0.4,1.4,1.601,1.2c9.5-3.2,16.399-12.2,16.399-22.799
	C48.05,11.283,37.35,0.583,24.05,0.583z"/>
</svg>
