<?xml version="1.0" encoding="utf-8"?>
<!-- Generator: Adobe Illustrator 19.1.0, SVG Export Plug-In . SVG Version: 6.00 Build 0)  -->
<svg version="1.1" id="Layer_1" xmlns="http://www.w3.org/2000/svg" xmlns:xlink="http://www.w3.org/1999/xlink" x="0px" y="0px"
	 viewBox="5 -7 24 24" style="enable-background:new 5 -7 24 24;" xml:space="preserve">
<style type="text/css">
	.st0{fill:#FFFFFF;}
</style>
<path class="st0" d="M22,8.6C22.7,7.8,23.1,7,23.5,6C23.8,5,24,4,24,3c0-1.2-0.2-2.4-0.7-3.5c-0.5-1.1-1.1-2.1-1.9-2.9
	c-0.8-0.8-1.8-1.4-2.9-1.9C17.4-5.8,16.2-6,15-6s-2.4,0.2-3.5,0.7c-1.1,0.5-2.1,1.1-2.9,1.9S7.2-1.6,6.7-0.5C6.2,0.6,6,1.8,6,3
	s0.2,2.4,0.7,3.5c0.5,1.1,1.1,2.1,1.9,2.9c0.8,0.8,1.8,1.4,2.9,1.9c1.1,0.5,2.3,0.7,3.5,0.7c1,0,2-0.2,3-0.5c1-0.3,1.8-0.8,2.6-1.5
	l6,6l1.4-1.4L22,8.6z M20.9,5.5c-0.3,0.8-0.8,1.5-1.4,2c-0.6,0.6-1.3,1-2,1.4c-0.8,0.3-1.6,0.5-2.5,0.5s-1.7-0.2-2.5-0.5
	c-0.8-0.3-1.5-0.8-2-1.4c-0.6-0.6-1-1.3-1.4-2C8.8,4.7,8.6,3.9,8.6,3s0.2-1.7,0.5-2.5c0.3-0.8,0.8-1.5,1.4-2c0.6-0.6,1.3-1,2-1.4
	c0.8-0.3,1.6-0.5,2.5-0.5s1.7,0.2,2.5,0.5c0.8,0.3,1.5,0.8,2,1.4c0.6,0.6,1,1.3,1.4,2c0.3,0.8,0.5,1.6,0.5,2.5S21.2,4.7,20.9,5.5z"
	/>
</svg>
