<?xml version="1.0" encoding="utf-8"?>
<!-- Generator: Adobe Illustrator 19.2.1, SVG Export Plug-In . SVG Version: 6.00 Build 0)  -->
<svg version="1.1" id="Layer_1" xmlns="http://www.w3.org/2000/svg" xmlns:xlink="http://www.w3.org/1999/xlink" x="0px" y="0px"
	 width="24px" height="24px" viewBox="0 0 24 24" style="enable-background:new 0 0 24 24;" xml:space="preserve">
<style type="text/css">
	.st0{fill:#2F4856;}
</style>
<path class="st0" d="M10,1c1.2,0,2.4,0.2,3.5,0.7s2.1,1.1,2.9,1.9s1.4,1.8,1.9,2.9S19,8.8,19,10c0,1-0.2,2.1-0.5,3
	c-0.3,1-0.8,1.8-1.5,2.6l5.7,5.7c0.2,0.2,0.3,0.4,0.3,0.7c0,0.3-0.1,0.5-0.3,0.7S22.3,23,22,23s-0.5-0.1-0.7-0.3L15.6,17
	c-0.8,0.6-1.7,1.1-2.6,1.5S11,19,10,19c-1.2,0-2.4-0.2-3.5-0.7s-2.1-1.1-2.9-1.9c-0.8-0.8-1.4-1.8-1.9-2.9S1,11.2,1,10
	s0.2-2.4,0.7-3.5s1.1-2.1,1.9-2.9s1.8-1.4,2.9-1.9S8.8,1,10,1z M10,3C9.1,3,8.1,3.2,7.3,3.6C6.4,3.9,5.7,4.4,5,5
	C4.4,5.7,3.9,6.4,3.6,7.3C3.2,8.1,3,9.1,3,10s0.2,1.9,0.6,2.7S4.4,14.3,5,15s1.4,1.1,2.2,1.5C8.1,16.8,9.1,17,10,17s1.9-0.2,2.7-0.6
	c0.9-0.4,1.6-0.9,2.2-1.5s1.1-1.4,1.5-2.2c0.4-0.9,0.6-1.8,0.6-2.7s-0.2-1.9-0.6-2.7C16.1,6.4,15.6,5.7,15,5
	c-0.6-0.6-1.4-1.1-2.2-1.5C11.9,3.2,10.9,3,10,3z"/>
</svg>
