<?xml version="1.0" encoding="utf-8"?>
<!-- Generator: Adobe Illustrator 19.2.1, SVG Export Plug-In . SVG Version: 6.00 Build 0)  -->
<svg version="1.1" id="Layer_1" xmlns="http://www.w3.org/2000/svg" xmlns:xlink="http://www.w3.org/1999/xlink" x="0px" y="0px"
	 width="48px" height="96px" viewBox="0 0 48 96" style="enable-background:new 0 0 48 96;" xml:space="preserve">
<style type="text/css">
	.st0{fill:#FFFFFF;}
</style>
<g>
	<rect y="48.1" width="47.9" height="47.9"/>
	<path class="st0" d="M19.7,85.9H30h0.3c-0.1,0-0.3,0-0.3,0c-0.4-0.1-0.6-0.4-0.6-0.9c0-0.6,0-2.6,0-4.9c0-1.7-0.6-2.9-1.2-3.3
		c4.1-0.4,8.3-1.9,8.3-9c0-1.9-0.8-3.6-1.8-5c0.2-0.5,0.8-2.3-0.2-4.8c0,0-1.5-0.5-4.9,1.8c-1.5-0.5-3-0.6-4.5-0.6s-3.1,0.1-4.5,0.6
		c-3.5-2.4-5-1.8-5-1.8c-1,2.5-0.3,4.3-0.1,4.8c-1.2,1.2-1.8,2.9-1.8,5c0,7.1,4.2,8.6,8.3,9c-0.5,0.4-1.1,1.2-1.2,2.4
		c-1,0.4-3.6,1.2-5.3-1.5c0,0-0.9-1.8-2.9-1.9c0,0-1.8,0-0.1,1.1c0,0,1.2,0.6,1.9,2.7c0,0,1.1,3.6,6.2,2.4c0,1.5,0,2.7,0,3.2
		c0,0.3-0.1,0.8-0.5,0.9H19.7z"/>
</g>
<g>
	<path class="st0" d="M19.7,37.9h10.4h0.3c-0.2,0-0.3,0-0.3,0c-0.5-0.2-0.6-0.5-0.6-0.9c0-0.6,0-2.6,0-5c0-1.7-0.6-2.9-1.2-3.3
		c4.1-0.5,8.3-2,8.3-9c0-2-0.8-3.6-1.8-5c0.2-0.5,0.8-2.3-0.2-4.8c0,0-1.5-0.5-5,1.8c-1.5-0.5-3-0.6-4.5-0.6s-3.2,0.2-4.5,0.6
		c-3.5-2.4-5-1.8-5-1.8c-1.2,2.6-0.6,4.4-0.5,4.8c-1.2,1.2-1.8,2.9-1.8,5c0,7.1,4.2,8.6,8.3,9c-0.5,0.5-1.1,1.2-1.2,2.4
		c-1.1,0.5-3.6,1.2-5.3-1.5c0,0-0.9-1.8-2.9-2c0,0-1.8,0-0.2,1.1c0,0,1.2,0.6,2,2.7c0,0,1.1,3.6,6.2,2.4c0,1.5,0,2.7,0,3.2
		c0,0.3-0.2,0.8-0.5,0.9L19.7,37.9z"/>
	<path class="st0" d="M48.1,48.1H0V0h48.1V48.1z M2,46.1h44.1V2H2V46.1z"/>
</g>
</svg>
