<?xml version="1.0" encoding="utf-8"?>
<!-- Generator: Adobe Illustrator 16.0.3, SVG Export Plug-In . SVG Version: 6.00 Build 0)  -->
<!DOCTYPE svg PUBLIC "-//W3C//DTD SVG 1.1//EN" "http://www.w3.org/Graphics/SVG/1.1/DTD/svg11.dtd">
<svg version="1.1" id="Layer_1" xmlns="http://www.w3.org/2000/svg" xmlns:xlink="http://www.w3.org/1999/xlink" x="0px" y="0px"
	 width="48px" height="48px" viewBox="0 0 48 48" style="enable-background:new 0 0 48 48;" xml:space="preserve">
<path style="fill:#ED1E79;" d="M11.318,43.453H2.307v-28.84h9.011V43.453z M6.582,11.002H6.516c-3.262,0-5.375-2.202-5.375-4.994
	C1.141,3.157,3.317,1,6.645,1c3.324,0,5.368,2.152,5.432,5C12.077,8.792,9.969,11.002,6.582,11.002z M47.365,43.453H37.148V28.529
	c0-3.908-1.598-6.572-5.113-6.572c-2.684,0-4.18,1.796-4.878,3.535c-0.261,0.619-0.22,1.482-0.22,2.354v15.607H16.817
	c0,0,0.131-26.439,0-28.84h10.123v4.526c0.6-1.98,3.83-4.805,8.992-4.805c6.402,0,11.437,4.148,11.437,13.084L47.365,43.453
	L47.365,43.453z"/>
</svg>
