<?xml version="1.0" encoding="utf-8"?>
<!-- Generator: Adobe Illustrator 19.2.1, SVG Export Plug-In . SVG Version: 6.00 Build 0)  -->
<svg version="1.1" id="Layer_1" xmlns="http://www.w3.org/2000/svg" xmlns:xlink="http://www.w3.org/1999/xlink" x="0px" y="0px"
	 width="48px" height="96px" viewBox="0 0 48 96" style="enable-background:new 0 0 48 96;" xml:space="preserve">
<style type="text/css">
	.st0{fill:#FFFFFF;}
	.st1{fill:#0173B2;}
</style>
<g>
	<g>
		<rect x="10" y="19" class="st0" width="6" height="19"/>
		<circle class="st0" cx="13" cy="14" r="3"/>
		<path class="st0" d="M37.9,27.9c0-5-1-8.9-6.9-8.9c-2.9,0-4.7,1.5-5.4,3h-0.1v-2.6H20v18.6h5.7v-9.1c0-2.4,0.4-4.8,3.4-4.8
			s3,2.7,3,4.9v9h5.7V27.9H37.9z"/>
	</g>
</g>
<g>
	<g>
		<rect y="48" class="st1" width="48" height="48"/>
		<rect x="10.1" y="67" class="st0" width="6" height="19"/>
		<circle class="st0" cx="13.1" cy="61.9" r="3"/>
		<path class="st0" d="M38,75.8c0-4.9-1-8.8-6.9-8.8c-2.8,0-4.6,1.5-5.4,3h-0.1v-2.5H20V86h5.7v-9.1c0-2.4,0.4-4.8,3.4-4.8
			s3,2.7,3,4.9v9h5.7V75.8H38z"/>
	</g>
</g>
<path class="st0" d="M48.1,48.1H0.1V0h48.1V48.1z M2.1,46.1h44.1V2H2.1V46.1z"/>
</svg>
