<?xml version="1.0" encoding="utf-8"?>
<!-- Generator: Adobe Illustrator 19.1.0, SVG Export Plug-In . SVG Version: 6.00 Build 0)  -->
<svg version="1.1" id="Layer_1" xmlns="http://www.w3.org/2000/svg" xmlns:xlink="http://www.w3.org/1999/xlink" x="0px" y="0px"
	 viewBox="0 0 32 64" style="enable-background:new 0 0 32 64;" xml:space="preserve">
<style type="text/css">
	.st0{fill:#FFFFFF;}
	.st1{fill:#2EA9E0;}
	.st2{fill:#3C5C9B;}
	.st3{fill:#0173B2;}
	.st4{fill:#E7412F;}
	.st5{fill-rule:evenodd;clip-rule:evenodd;fill:#FFFFFF;}
</style>
<g>
	<g>
		<path class="st0" d="M24.8,8.3c-0.7,0.5-1.6,0.8-2.4,1C21.7,8.5,20.7,8,19.6,8c-2.1,0-3.8,1.8-3.8,4c0,0.3,0,0.6,0.1,0.9
			c-3.2-0.2-6-1.8-7.9-4.2c-0.3,0.6-0.5,1.3-0.5,2c0,1.4,0.7,2.6,1.7,3.4c-0.6,0-1.2-0.2-1.7-0.5c0,0,0,0,0,0.1c0,2,1.3,3.6,3.1,4
			c-0.3,0.1-0.7,0.1-1,0.1c-0.2,0-0.5,0-0.7-0.1c0.5,1.6,1.9,2.8,3.6,2.8c-1.3,1.1-3,1.7-4.8,1.7c-0.3,0-0.6,0-0.9-0.1
			c1.7,1.1,3.7,1.8,5.9,1.8c7,0,10.9-6.2,10.9-11.5c0-0.2,0-0.3,0-0.5c0.7-0.6,1.4-1.3,1.9-2.1c-0.7,0.3-1.4,0.5-2.2,0.6
			C23.9,10,24.5,9.2,24.8,8.3z"/>
	</g>
	<g>
		<path class="st0" d="M30,1c0.6,0,1,0.4,1,1v28c0,0.6-0.4,1-1,1H2c-0.6,0-1-0.4-1-1V2c0-0.6,0.4-1,1-1H30 M30,0H2C0.9,0,0,0.9,0,2
			v28c0,1.1,0.9,2,2,2h28c1.1,0,2-0.9,2-2V2C32,0.9,31.1,0,30,0L30,0z"/>
	</g>
</g>
<g>
	<g>
		<path class="st1" d="M2,63.5c-0.8,0-1.5-0.7-1.5-1.5V34c0-0.8,0.7-1.5,1.5-1.5h28c0.8,0,1.5,0.7,1.5,1.5v28c0,0.8-0.7,1.5-1.5,1.5
			H2z"/>
		<path class="st1" d="M30,33c0.6,0,1,0.4,1,1v28c0,0.6-0.4,1-1,1H2c-0.6,0-1-0.4-1-1V34c0-0.6,0.4-1,1-1H30 M30,32H2
			c-1.1,0-2,0.9-2,2v28c0,1.1,0.9,2,2,2h28c1.1,0,2-0.9,2-2V34C32,32.9,31.1,32,30,32L30,32z"/>
	</g>
	<g>
		<path class="st0" d="M24.8,40.3c-0.7,0.5-1.6,0.8-2.4,1c-0.7-0.8-1.7-1.3-2.8-1.3c-2.1,0-3.8,1.8-3.8,4c0,0.3,0,0.6,0.1,0.9
			c-3.2-0.2-6-1.8-7.9-4.2c-0.3,0.6-0.5,1.3-0.5,2c0,1.4,0.7,2.6,1.7,3.4c-0.6,0-1.2-0.2-1.7-0.5c0,0,0,0,0,0.1c0,2,1.3,3.6,3.1,4
			c-0.3,0.1-0.7,0.1-1,0.1c-0.2,0-0.5,0-0.7-0.1c0.5,1.6,1.9,2.8,3.6,2.8c-1.3,1.1-3,1.7-4.8,1.7c-0.3,0-0.6,0-0.9-0.1
			c1.7,1.1,3.7,1.8,5.9,1.8c7,0,10.9-6.2,10.9-11.5c0-0.2,0-0.3,0-0.5c0.7-0.6,1.4-1.3,1.9-2.1c-0.7,0.3-1.4,0.5-2.2,0.6
			C23.9,42,24.5,41.2,24.8,40.3z"/>
	</g>
</g>
</svg>
