<?xml version="1.0" encoding="utf-8"?>
<!-- Generator: Adobe Illustrator 19.1.0, SVG Export Plug-In . SVG Version: 6.00 Build 0)  -->
<svg version="1.1" id="Layer_1" xmlns="http://www.w3.org/2000/svg" xmlns:xlink="http://www.w3.org/1999/xlink" x="0px" y="0px"
	 viewBox="0 0 32 64" style="enable-background:new 0 0 32 64;" xml:space="preserve">
<style type="text/css">
	.st0{fill:#FFFFFF;}
	.st1{fill:#2EA9E0;}
	.st2{fill:#3C5C9B;}
	.st3{fill:#0173B2;}
	.st4{fill:#E7412F;}
	.st5{fill-rule:evenodd;clip-rule:evenodd;fill:#FFFFFF;}
</style>
<g>
	<g>
		<path class="st0" d="M13.5,25.3h3.8c0,0,0-5.2,0-9.3h3l0.4-3.3h-3.3v-2c0-0.7,0.3-0.8,0.7-0.8s2.6,0,2.6,0V6.7l-3.1,0
			c-3.4,0-4,2.4-4,3.9v2.1h-2.2V16h2.2C13.5,20.2,13.5,25.3,13.5,25.3z"/>
	</g>
	<g>
		<path class="st0" d="M30,1c0.6,0,1,0.4,1,1v28c0,0.6-0.4,1-1,1H2c-0.6,0-1-0.4-1-1V2c0-0.6,0.4-1,1-1H30 M30,0H2C0.9,0,0,0.9,0,2
			v28c0,1.1,0.9,2,2,2h28c1.1,0,2-0.9,2-2V2C32,0.9,31.1,0,30,0L30,0z"/>
	</g>
</g>
<g>
	<g>
		<path class="st2" d="M30,64H2c-1.1,0-2-0.9-2-2V34c0-1.1,0.9-2,2-2h28c1.1,0,2,0.9,2,2v28C32,63.1,31.1,64,30,64z"/>
	</g>
	<path class="st0" d="M13.5,57.3h3.8c0,0,0-5.2,0-9.3h3l0.4-3.3h-3.3v-2c0-0.7,0.3-0.8,0.7-0.8s2.6,0,2.6,0v-3.2l-3.1,0
		c-3.4,0-4,2.4-4,3.9v2.1h-2.2V48h2.2C13.5,52.2,13.5,57.3,13.5,57.3z"/>
</g>
</svg>
