<?xml version="1.0" encoding="utf-8"?>
<!-- Generator: Adobe Illustrator 19.2.1, SVG Export Plug-In . SVG Version: 6.00 Build 0)  -->
<svg version="1.1" id="Layer_1" xmlns="http://www.w3.org/2000/svg" xmlns:xlink="http://www.w3.org/1999/xlink" x="0px" y="0px"
	 width="48px" height="96px" viewBox="0 0 48 96" style="enable-background:new 0 0 48 96;" xml:space="preserve">
<style type="text/css">
	.st0{fill:#3C5C9B;}
	.st1{fill:#FFFFFF;}
	.st2{fill:none;stroke:#FFFFFF;stroke-width:2;stroke-miterlimit:10;}
</style>
<rect y="48" class="st0" width="48" height="48"/>
<path class="st1" d="M20.1,37.9h5.7c0,0,0-7.8,0-13.9h4.5l0.6-4.9h-4.9v-3c0-1.1,0.4-1.2,1.1-1.2s3.9,0,3.9,0V10h-4.7
	c-5.1,0-6,3.6-6,5.9v3.2h-3.3V24h3.3C20.1,30.3,20.1,37.9,20.1,37.9z"/>
<path class="st1" d="M20.3,85.9h5.7c0,0,0-7.8,0-13.9h4.5l0.6-4.9h-5v-3c0-1.1,0.5-1.2,1.1-1.2s3.9,0,3.9,0v-4.8h-4.6
	c-5.1,0-6,3.6-6,5.8v3.2h-3.3V72h3.3C20.3,78.3,20.3,85.9,20.3,85.9z"/>
<rect x="1.2" y="1.2" class="st2" width="45.8" height="45.8"/>
</svg>
