<?xml version="1.0" encoding="utf-8"?>
<!-- Generator: Adobe Illustrator 19.2.1, SVG Export Plug-In . SVG Version: 6.00 Build 0)  -->
<svg version="1.1" id="Layer_1" xmlns="http://www.w3.org/2000/svg" xmlns:xlink="http://www.w3.org/1999/xlink" x="0px" y="0px"
	 width="48px" height="96px" viewBox="0 0 48 96" style="enable-background:new 0 0 48 96;" xml:space="preserve">
<style type="text/css">
	.st0{fill:none;stroke:#FFFFFF;stroke-width:2;stroke-miterlimit:10;}
	.st1{fill:#FFFFFF;}
	.st2{fill:#2EA9E0;}
</style>
<g id="white">
	<rect x="1.2" y="1.2" class="st0" width="45.8" height="45.8"/>
	<path id="twitter" class="st1" d="M37.5,12.3c-1.1,0.8-2.4,1.2-3.7,1.5c-1.1-1.2-2.6-2-4.3-2c-3.2,0-5.8,2.8-5.8,6.1
		c0,0.5,0,0.9,0.2,1.4c-4.9-0.3-9.2-2.8-12.1-6.4c-0.5,0.9-0.8,2-0.8,3.1c0,2.1,1.1,4,2.6,5.2c-0.9,0-1.8-0.3-2.6-0.8c0,0,0,0,0,0.2
		c0,3.1,2,5.5,4.7,6.1c-0.5,0.2-1.1,0.2-1.5,0.2c-0.3,0-0.8,0-1.1-0.2c0.8,2.4,2.9,4.3,5.5,4.3c-2,1.7-4.6,2.6-7.3,2.6
		c-0.5,0-0.9,0-1.4-0.2c2.6,1.7,5.7,2.8,9,2.8c10.7,0,16.7-9.5,16.7-17.6c0-0.3,0-0.5,0-0.8c1.1-0.9,2.1-2,2.9-3.2
		c-1.1,0.5-2.1,0.8-3.4,0.9C36.2,14.9,37.1,13.7,37.5,12.3z"/>
</g>
<g>
	<rect y="48" class="st2" width="47.9" height="47.9"/>
	<path id="twitter_1_" class="st1" d="M37.1,60.4c-1,0.7-2.4,1.2-3.6,1.5c-1-1.2-2.5-1.9-4.2-1.9c-3.1,0-5.7,2.7-5.7,6
		c0,0.4,0,0.9,0.1,1.3C19,67,14.8,64.6,12,61c-0.4,0.9-0.7,1.9-0.7,3c0,2.1,1,3.9,2.5,5.1c-0.9,0-1.8-0.3-2.5-0.7c0,0,0,0,0,0.1
		c0,3,1.9,5.4,4.6,6c-0.4,0.1-1,0.1-1.5,0.1c-0.3,0-0.7,0-1-0.1c0.7,2.4,2.8,4.2,5.4,4.2c-1.9,1.6-4.5,2.5-7.2,2.5
		c-0.4,0-0.9,0-1.3-0.1c2.5,1.6,5.5,2.7,8.8,2.7c10.5,0,16.3-9.3,16.3-17.2c0-0.3,0-0.4,0-0.7c1-0.9,2.1-1.9,2.8-3.1
		c-1,0.4-2.1,0.7-3.3,0.9C35.8,63,36.7,61.8,37.1,60.4z"/>
</g>
</svg>
