<?xml version="1.0" encoding="utf-8"?>
<!-- Generator: Adobe Illustrator 19.1.0, SVG Export Plug-In . SVG Version: 6.00 Build 0)  -->
<svg version="1.1" id="Layer_1" xmlns="http://www.w3.org/2000/svg" xmlns:xlink="http://www.w3.org/1999/xlink" x="0px" y="0px"
	 viewBox="0 0 32 64" style="enable-background:new 0 0 32 64;" xml:space="preserve">
<style type="text/css">
	.st0{fill:#FFFFFF;}
	.st1{fill:#2EA9E0;}
	.st2{fill:#3C5C9B;}
	.st3{fill:#0173B2;}
	.st4{fill:#E7412F;}
	.st5{fill-rule:evenodd;clip-rule:evenodd;fill:#FFFFFF;}
</style>
<g>
	<g>
		<rect x="6.7" y="12.7" class="st0" width="4" height="12.7"/>
		<circle class="st0" cx="8.7" cy="9.3" r="2"/>
		<path class="st0" d="M25.3,18.6c0-3.3-0.7-5.9-4.6-5.9c-1.9,0-3.1,1-3.6,2H17V13h-3.7v12.4h3.8v-6.1c0-1.6,0.3-3.2,2.3-3.2
			c2,0,2,1.8,2,3.3v6h3.8V18.6z"/>
	</g>
	<g>
		<path class="st0" d="M30,1c0.6,0,1,0.4,1,1v28c0,0.6-0.4,1-1,1H2c-0.6,0-1-0.4-1-1V2c0-0.6,0.4-1,1-1H30 M30,0H2C0.9,0,0,0.9,0,2
			v28c0,1.1,0.9,2,2,2h28c1.1,0,2-0.9,2-2V2C32,0.9,31.1,0,30,0L30,0z"/>
	</g>
</g>
<g>
	<g>
		<path class="st3" d="M2,63.5c-0.8,0-1.5-0.7-1.5-1.5V34c0-0.8,0.7-1.5,1.5-1.5h28c0.8,0,1.5,0.7,1.5,1.5v28c0,0.8-0.7,1.5-1.5,1.5
			H2z"/>
		<path class="st3" d="M30,33c0.6,0,1,0.4,1,1v28c0,0.6-0.4,1-1,1H2c-0.6,0-1-0.4-1-1V34c0-0.6,0.4-1,1-1H30 M30,32H2
			c-1.1,0-2,0.9-2,2v28c0,1.1,0.9,2,2,2h28c1.1,0,2-0.9,2-2V34C32,32.9,31.1,32,30,32L30,32z"/>
	</g>
	<g>
		<rect x="6.7" y="44.7" class="st0" width="4" height="12.7"/>
		<circle class="st0" cx="8.7" cy="41.3" r="2"/>
		<path class="st0" d="M25.3,50.6c0-3.3-0.7-5.9-4.6-5.9c-1.9,0-3.1,1-3.6,2H17V45h-3.7v12.4h3.8v-6.1c0-1.6,0.3-3.2,2.3-3.2
			c2,0,2,1.8,2,3.3v6h3.8V50.6z"/>
	</g>
</g>
</svg>
