<?xml version="1.0" encoding="utf-8"?>
<!-- Generator: Adobe Illustrator 16.0.3, SVG Export Plug-In . SVG Version: 6.00 Build 0)  -->
<!DOCTYPE svg PUBLIC "-//W3C//DTD SVG 1.1//EN" "http://www.w3.org/Graphics/SVG/1.1/DTD/svg11.dtd">
<svg version="1.1" id="Layer_1" xmlns="http://www.w3.org/2000/svg" xmlns:xlink="http://www.w3.org/1999/xlink" x="0px" y="0px"
	 width="143.86px" height="143.861px" viewBox="0 0 143.86 143.861" style="enable-background:new 0 0 143.86 143.861;"
	 xml:space="preserve">
<g>
	<path d="M11.857,87.207H10V60.607h14.574v1.71H11.857v11.28h12.008v1.729H11.857V87.207z"/>
</g>
<g>
	<path d="M119.322,87.207V60.607h1.857V85.46h12.68v1.747H119.322z"/>
</g>
<g>
	<rect x="-28.796" y="70.931" transform="matrix(0.7071 0.7071 -0.7071 0.7071 71.9302 -29.7937)" width="201.45" height="2"/>
</g>
<g>
	<rect x="70.93" y="-28.794" transform="matrix(0.7071 0.7071 -0.7071 0.7071 71.9304 -29.7944)" width="2" height="201.45"/>
</g>
<g>
	<path d="M72.9,116.773c0.75-0.892,1.602-2.232,1.602-3.91c0.001-1.657-0.828-3.306-2.463-4.902
		c-1.894-1.848-1.321-4.367-0.339-5.487l-0.752-0.659c-1.234,1.408-1.964,4.563,0.392,6.862c1.436,1.4,2.163,2.809,2.162,4.186
		c0,1.81-1.27,3.225-1.953,3.91h-3.795c2.244-2.29,1.523-5.38,0.306-6.772l-0.752,0.659c0.981,1.122,1.555,3.642-0.335,5.487
		c-0.204,0.198-0.389,0.414-0.576,0.625H56.93v10.085c0,4.583,4.487,8.915,9.234,8.915h12.084c4.989,0,7.682-4.593,7.682-8.915
		v-10.085H72.9z M84.93,126.858c0,3.837-2.342,7.915-6.682,7.915H66.164c-4.155,0-8.234-3.92-8.234-7.915v-9.085h27V126.858z"/>
	<path d="M77.169,114.241l0.723,0.691c0.796-0.832,1.418-2.812,0.225-4.422c-1.748-2.36-0.557-3.88,0.491-4.819l-0.666-0.745
		c-2.58,2.309-1.766,4.624-0.628,6.16C78.194,112.294,77.654,113.734,77.169,114.241z"/>
</g>
<path d="M79.223,28.913c8.361-11.477,8.101-22.739,8.096-22.877l-0.04-1.15L71.736,20.427l-0.79-0.892l-0.854-3.946
	c-0.015-0.071-0.046-0.138-0.09-0.196l-6.278-8.274c-0.088-0.115-0.221-0.187-0.364-0.197c-0.145-0.007-0.286,0.043-0.388,0.146
	l-0.871,0.871c-0.169,0.169-0.195,0.435-0.062,0.633l4.229,6.279l-5.435-4.875c-0.189-0.171-0.477-0.17-0.666-0.001l-0.899,0.8
	c-0.1,0.088-0.159,0.212-0.167,0.344c-0.008,0.133,0.037,0.263,0.126,0.362l5.099,5.729l-0.098,0.131l-6.577-4.383
	c-0.199-0.133-0.463-0.105-0.631,0.062l-0.82,0.819c-0.103,0.102-0.155,0.243-0.146,0.387c0.011,0.145,0.083,0.275,0.199,0.362
	l8.242,6.174c0.063,0.048,0.138,0.07,0.216,0.084l4.406,0.729l0.682,0.79L55.577,36.586l3.627,2.808l7.51-7.672l4.814,5.395
	l0.372-0.318c2.061-1.764,3.84-3.587,5.387-5.425l6.615,8.337c0.09,0.114,0.225,0.063,0.369,0.063c0.008,0,0.016,0,0.023,0
	c0.137,0,0.268,0.071,0.362-0.028l1.786-1.751c0.177-0.187,0.185-0.477,0.017-0.672L79.223,28.913z M70.479,21.684l-0.712-0.853
	c-0.076-0.091-0.183-0.153-0.3-0.173l-4.469-0.759l-7.684-5.76l0.122-0.122l6.632,4.419c0.22,0.147,0.52,0.096,0.679-0.118
	l0.623-0.84c0.142-0.19,0.13-0.453-0.028-0.63l-5.036-5.659l0.192-0.171l5.664,5.08c0.186,0.167,0.465,0.17,0.654,0.012l0.617-0.516
	c0.197-0.165,0.237-0.451,0.095-0.663l-4.43-6.577l0.175-0.175l5.865,7.729l0.858,3.966c0.018,0.083,0.058,0.162,0.114,0.226
	l0.917,1.035l-0.089,0.088L70.479,21.684z M71.62,35.718l-4.873-5.46l-7.635,7.8l-2.025-1.567l14.97-14.97l0.012-0.011
	c0,0,0.001-0.001,0.002-0.002L86.285,7.293c-0.188,3.205-1.334,12.218-8.095,21.329c-0.003,0.003-0.007,0.004-0.009,0.007
	c-0.407,0.553-0.843,1.085-1.296,1.634c-0.017,0.021-0.013,0.045-0.025,0.066C75.362,32.151,73.629,33.963,71.62,35.718z
	 M84.33,38.766l-6.417-8.146c0.059-0.072,0.113-0.144,0.171-0.216c0.066-0.083,0.132-0.166,0.197-0.249
	c0.109-0.139,0.223-0.277,0.329-0.417l6.797,7.895L84.33,38.766z"/>
</svg>
