<?xml version="1.0" encoding="utf-8"?>
<!-- Generator: Adobe Illustrator 19.1.0, SVG Export Plug-In . SVG Version: 6.00 Build 0)  -->
<svg version="1.1" id="Layer_1" xmlns="http://www.w3.org/2000/svg" xmlns:xlink="http://www.w3.org/1999/xlink" x="0px" y="0px"
	 viewBox="-467 269 24 24" enable-background="new -467 269 24 24" xml:space="preserve">
<g>
	<path fill="#FFFFFF" d="M-444.3,290.3L-444.3,290.3l-5.7-5.7c0.6-0.8,1.1-1.6,1.4-2.6c0.3-1,0.5-2,0.5-3c0-1.2-0.2-2.4-0.7-3.5
		c-0.5-1.1-1.1-2.1-1.9-2.9c-0.8-0.8-1.8-1.4-2.9-1.9c-1.1-0.5-2.3-0.7-3.5-0.7c-1.2,0-2.4,0.2-3.5,0.7c-1.1,0.5-2.1,1.1-2.9,1.9
		c-0.8,0.8-1.4,1.8-1.9,2.9c-0.5,1.1-0.7,2.3-0.7,3.5c0,1.2,0.2,2.4,0.7,3.5c0.5,1.1,1.1,2.1,1.9,2.9c0.8,0.8,1.8,1.4,2.9,1.9
		c1.1,0.5,2.3,0.7,3.5,0.7c1,0,2-0.2,3-0.5c0.9-0.3,1.8-0.8,2.6-1.4l5.7,5.7l0,0c0.2,0.2,0.4,0.3,0.7,0.3c0.6,0,1-0.5,1-1
		C-444,290.7-444.1,290.4-444.3,290.3z M-457,286c-3.9,0-7-3.1-7-7s3.1-7,7-7s7,3.1,7,7S-453.1,286-457,286z"/>
</g>
</svg>
