<?xml version="1.0" encoding="utf-8"?>
<!-- Generator: Adobe Illustrator 19.0.1, SVG Export Plug-In . SVG Version: 6.00 Build 0)  -->
<svg version="1.1" id="Layer_1" xmlns="http://www.w3.org/2000/svg" xmlns:xlink="http://www.w3.org/1999/xlink" x="0px" y="0px"
	 viewBox="-149.5 -149.5 300 300" style="enable-background:new -149.5 -149.5 300 300;" xml:space="preserve">
<style type="text/css">
	.st0{fill:#02C3E5;}
</style>
<g>
	<path class="st0" d="M1.2,130c-23.2,0-46.3-0.1-69.5,0.1c-3.2,0-5-0.8-6.7-3.7c-23.3-40.7-46.8-81.4-70.3-122c-1.4-2.4-1.3-4,0-6.3
		c23.6-40.7,47.1-81.5,70.6-122.3c1.4-2.4,3-3,5.6-3c47.1,0.1,94.3,0.1,141.4,0c2.7,0,4.2,0.9,5.5,3.2
		c23.4,40.7,46.8,81.3,70.4,121.9c1.4,2.4,1.6,4.2,0.1,6.7c-23.6,40.6-47,81.2-70.4,121.9c-1.5,2.7-3.2,3.6-6.3,3.6
		C48.1,129.9,24.6,130,1.2,130z M48.6,91.1c3.4,0,5.3-0.9,7-4c15.6-27.3,31.3-54.5,47.2-81.7c1.7-2.9,1.8-5.1,0-8.1
		C86.9-30,71.1-57.4,55.4-84.8c-1.5-2.6-3.1-3.7-6.2-3.7c-31.8,0.1-63.6,0.1-95.5,0c-2.9,0-4.4,0.9-5.9,3.4
		c-15.9,27.7-31.9,55.4-47.9,83c-1.4,2.4-1.5,4.3-0.1,6.8c16.1,27.6,32,55.3,47.9,83c1.4,2.5,3,3.4,5.8,3.4
		C-30.6,90.9,32.7,90.9,48.6,91.1z"/>
</g>
</svg>
