<?xml version="1.0" encoding="utf-8"?>
<!-- Generator: Adobe Illustrator 16.0.3, SVG Export Plug-In . SVG Version: 6.00 Build 0)  -->
<!DOCTYPE svg PUBLIC "-//W3C//DTD SVG 1.1//EN" "http://www.w3.org/Graphics/SVG/1.1/DTD/svg11.dtd">
<svg version="1.1" id="Layer_1" xmlns="http://www.w3.org/2000/svg" xmlns:xlink="http://www.w3.org/1999/xlink" x="0px" y="0px"
	 width="100px" height="100px" viewBox="0 0 100 100" enable-background="new 0 0 100 100" xml:space="preserve">
<text transform="matrix(1 0 0 1 466.002 143.418)"><tspan x="0" y="0" font-family="'BaronNeueBlack'" font-size="44.7252">MC</tspan><tspan x="0" y="53.67" font-family="'BaronNeueBlack'" font-size="44.7252">MR. Fixit</tspan></text>
<g>
	<path fill="#FFFFFF" d="M2.264,1.973H16.54v4.199h-4.828v25.193h-4.62V6.172H2.264V1.973z"/>
	<path fill="#FFFFFF" d="M23.174,31.365h-4.62V1.973h4.62v12.596h5.248V1.973h4.703v29.392h-4.703V18.769h-5.248V31.365z"/>
	<path fill="#FFFFFF" d="M41.101,14.36h6.34v4.199h-6.34v8.608h7.979v4.199H36.482V1.973h12.597v4.199h-7.979V14.36z"/>
	<path fill="#FFFFFF" d="M13.264,64.956c-0.251-0.756-0.419-1.218-0.419-3.611v-4.618c0-2.729-0.924-3.737-3.023-3.737H8.227v11.967
		h-4.62V35.564h6.97c4.788,0,6.845,2.225,6.845,6.76v2.31c0,3.023-0.966,4.996-3.023,5.962c2.309,0.966,3.065,3.19,3.065,6.257
		v4.534c0,1.427,0.042,2.478,0.503,3.569H13.264z M8.227,39.763v9.027h1.805c1.722,0,2.772-0.755,2.772-3.107v-2.897
		c0-2.1-0.714-3.023-2.352-3.023H8.227z"/>
	<path fill="#FFFFFF" d="M25.104,47.951h6.34v4.199h-6.34v8.607h7.979v4.199H20.486V35.564h12.597v4.199h-7.979V47.951z"/>
	<path fill="#FFFFFF" d="M42.151,35.228c4.494,0,6.802,2.688,6.802,7.39v0.924h-4.366v-1.218c0-2.1-0.84-2.897-2.31-2.897
		s-2.31,0.798-2.31,2.897c0,6.046,9.027,7.18,9.027,15.577c0,4.703-2.35,7.391-6.885,7.391s-6.887-2.688-6.887-7.391v-1.805h4.367
		v2.099c0,2.101,0.924,2.855,2.393,2.855s2.393-0.755,2.393-2.855c0-6.046-9.027-7.18-9.027-15.578
		C35.349,37.916,37.659,35.228,42.151,35.228z"/>
	<path fill="#FFFFFF" d="M51.262,42.618c0-4.702,2.478-7.39,7.013-7.39s7.012,2.688,7.012,7.39v15.284
		c0,4.703-2.477,7.391-7.012,7.391s-7.013-2.688-7.013-7.391V42.618z M55.881,58.195c0,2.101,0.924,2.898,2.393,2.898
		s2.393-0.798,2.393-2.898V42.324c0-2.1-0.924-2.897-2.393-2.897s-2.393,0.798-2.393,2.897V58.195z"/>
	<path fill="#FFFFFF" d="M3.606,69.154h4.62v25.192h7.6v4.199H3.606V69.154z"/>
	<path fill="#FFFFFF" d="M23.425,93.13l3.528-23.976h4.241l-4.535,29.392h-6.887l-4.534-29.392h4.66L23.425,93.13z"/>
	<path fill="#FFFFFF" d="M37.953,81.54h6.34v4.199h-6.34v8.607h7.979v4.199H33.334V69.154h12.597v4.199h-7.979V81.54z"/>
	<path fill="#FFFFFF" d="M58.442,98.546c-0.251-0.756-0.419-1.218-0.419-3.611v-4.618c0-2.729-0.924-3.737-3.023-3.737h-1.596
		v11.967h-4.62V69.154h6.97c4.788,0,6.845,2.225,6.845,6.76v2.309c0,3.024-0.965,4.998-3.023,5.963
		c2.309,0.966,3.064,3.191,3.064,6.257v4.534c0,1.428,0.042,2.478,0.504,3.569H58.442z M53.405,73.354v9.027h1.805
		c1.722,0,2.772-0.756,2.772-3.107v-2.896c0-2.101-0.715-3.023-2.352-3.023H53.405z"/>
	<path fill="#FFFFFF" d="M71.879,68.818c4.492,0,6.802,2.688,6.802,7.391v0.924h-4.367v-1.219c0-2.099-0.839-2.897-2.31-2.897
		c-1.469,0-2.308,0.799-2.308,2.897c0,6.047,9.027,7.18,9.027,15.577c0,4.703-2.352,7.391-6.887,7.391
		c-4.534,0-6.886-2.688-6.886-7.391v-1.805h4.366v2.099c0,2.101,0.924,2.855,2.395,2.855c1.469,0,2.393-0.755,2.393-2.855
		c0-6.046-9.027-7.179-9.027-15.576C65.077,71.506,67.385,68.818,71.879,68.818z"/>
</g>
</svg>
