<?xml version="1.0" encoding="utf-8"?>
<!-- Generator: Adobe Illustrator 16.0.3, SVG Export Plug-In . SVG Version: 6.00 Build 0)  -->
<!DOCTYPE svg PUBLIC "-//W3C//DTD SVG 1.1//EN" "http://www.w3.org/Graphics/SVG/1.1/DTD/svg11.dtd">
<svg version="1.1" id="Layer_1" xmlns="http://www.w3.org/2000/svg" xmlns:xlink="http://www.w3.org/1999/xlink" x="0px" y="0px"
	 width="125px" height="80px" viewBox="0 0 125 80" enable-background="new 0 0 125 80" xml:space="preserve">
<rect x="3.646" y="2.967" fill="#CF007F" width="118.854" height="76.065"/>
<rect x="9.646" y="8.967" fill="none" stroke="#FFFFFF" stroke-width="2" stroke-miterlimit="10" width="106.854" height="64.065"/>
<g>
	<path fill="#FFFFFF" d="M27.437,19.798h4.269V31.46h7.459v3.74H27.437V19.798z"/>
	<path fill="#FFFFFF" d="M65.105,19.798h4.271V35.2h-4.271V19.798z"/>
	<path fill="#FFFFFF" d="M86.1,26.532h18v3.564h-18V26.532z"/>
	<path fill="#FFFFFF" d="M27.437,46.799h12.321v3.74h-8.053v2.619h7.283v3.541h-7.283v5.502h-4.269L27.437,46.799L27.437,46.799z"/>
	<path fill="#FFFFFF" d="M60.596,46.799h12.388v3.607h-8.162v2.354h7.394v3.367h-7.394v2.441h8.273v3.631h-12.5V46.799z"/>
</g>
</svg>
