<?xml version="1.0" encoding="utf-8"?>
<!-- Generator: Adobe Illustrator 16.0.3, SVG Export Plug-In . SVG Version: 6.00 Build 0)  -->
<!DOCTYPE svg PUBLIC "-//W3C//DTD SVG 1.1//EN" "http://www.w3.org/Graphics/SVG/1.1/DTD/svg11.dtd">
<svg version="1.1" id="Layer_1" xmlns="http://www.w3.org/2000/svg" xmlns:xlink="http://www.w3.org/1999/xlink" x="0px" y="0px"
	 width="48px" height="48px" viewBox="0 0 48 48" enable-background="new 0 0 48 48" xml:space="preserve">
<path fill="#555555" d="M24,0.593c-13.253,0-24,10.745-24,24.001c0,10.604,6.876,19.598,16.415,22.772
	c1.2,0.219,1.637-0.521,1.637-1.156c0-0.569-0.02-2.081-0.031-4.084c-6.677,1.45-8.085-3.217-8.085-3.217
	c-1.091-2.771-2.665-3.511-2.665-3.511c-2.179-1.487,0.165-1.459,0.165-1.459c2.409,0.17,3.676,2.475,3.676,2.475
	c2.141,3.666,5.617,2.607,6.983,1.994c0.219-1.551,0.839-2.609,1.525-3.208c-5.329-0.607-10.933-2.665-10.933-11.862
	c0-2.62,0.935-4.763,2.47-6.44c-0.247-0.607-1.07-3.047,0.235-6.352c0,0,2.015-0.645,6.6,2.46c1.915-0.532,3.967-0.798,6.008-0.808
	c2.04,0.01,4.09,0.276,6.008,0.808c4.584-3.105,6.594-2.46,6.594-2.46c1.313,3.304,0.486,5.745,0.24,6.352
	c1.537,1.678,2.465,3.82,2.465,6.44c0,9.221-5.611,11.249-10.957,11.842c0.861,0.741,1.629,2.207,1.629,4.445
	c0,3.208-0.027,5.795-0.027,6.584c0,0.643,0.432,1.387,1.648,1.152C41.131,44.184,48,35.193,48,24.594
	C48,11.338,37.254,0.593,24,0.593z"/>
</svg>
